<svg xmlns="http://www.w3.org/2000/svg" viewBox="0 0 64 64">
  <defs>
    <linearGradient id="holo" x1="0%" y1="0%" x2="100%" y2="100%">
      <stop offset="0%" style="stop-color:#00ff88"/>
      <stop offset="50%" style="stop-color:#00d4ff"/>
      <stop offset="100%" style="stop-color:#00ff88"/>
    </linearGradient>
    <filter id="glow">
      <feGaussianBlur stdDeviation="1.5" result="coloredBlur"/>
      <feMerge>
        <feMergeNode in="coloredBlur"/>
        <feMergeNode in="SourceGraphic"/>
      </feMerge>
    </filter>
  </defs>
  <rect width="64" height="64" fill="#0a0f1a"/>
  <!-- T letter with circuit pattern -->
  <path d="M8 12 L8 8 L28 8 L28 12 L20 12 L20 40 L16 40 L16 12 Z"
        fill="none" stroke="url(#holo)" stroke-width="2" filter="url(#glow)"/>
  <!-- M letter with circuit pattern -->
  <path d="M32 8 L36 8 L44 24 L52 8 L56 8 L56 40 L52 40 L52 18 L44 34 L36 18 L36 40 L32 40 Z"
        fill="none" stroke="url(#holo)" stroke-width="2" filter="url(#glow)"/>
  <!-- Lock icon in center -->
  <rect x="26" y="44" width="12" height="10" rx="1" fill="none" stroke="url(#holo)" stroke-width="1.5" filter="url(#glow)"/>
  <path d="M29 44 L29 40 Q29 36 32 36 Q35 36 35 40 L35 44" fill="none" stroke="url(#holo)" stroke-width="1.5" filter="url(#glow)"/>
  <!-- Circuit dots -->
  <circle cx="8" cy="8" r="1.5" fill="url(#holo)" filter="url(#glow)"/>
  <circle cx="28" cy="8" r="1.5" fill="url(#holo)" filter="url(#glow)"/>
  <circle cx="56" cy="8" r="1.5" fill="url(#holo)" filter="url(#glow)"/>
  <circle cx="20" cy="40" r="1.5" fill="url(#holo)" filter="url(#glow)"/>
  <circle cx="56" cy="40" r="1.5" fill="url(#holo)" filter="url(#glow)"/>
</svg>
